<?xml version="1.0" encoding="utf-8"?>
<!-- Generator: Adobe Illustrator 17.1.0, SVG Export Plug-In . SVG Version: 6.00 Build 0)  -->
<!DOCTYPE svg PUBLIC "-//W3C//DTD SVG 1.1//EN" "http://www.w3.org/Graphics/SVG/1.1/DTD/svg11.dtd">
<svg version="1.1" xmlns="http://www.w3.org/2000/svg" xmlns:xlink="http://www.w3.org/1999/xlink" x="0px" y="0px" width="79px"
	 height="80px" viewBox="0 0 79 80" enable-background="new 0 0 79 80" xml:space="preserve">
<g id="Layer_2">
</g>
<g id="Layer_1">
	<g>
		
			<path fill="none" stroke="#000000" stroke-width="2.6752" stroke-linecap="round" stroke-linejoin="round" stroke-miterlimit="10" d="
			M14.173,74.486L2.012,77.85l2.846-12.679L65.983,4.046c2.547-2.547,6.675-2.547,9.222,0l0.093,0.093
			c2.547,2.547,2.547,6.675,0,9.222L14.173,74.486z"/>
		
			<line fill="none" stroke="#000000" stroke-width="2.6752" stroke-linejoin="round" stroke-miterlimit="10" x1="63.091" y1="6.939" x2="72.665" y2="16.513"/>
		
			<line fill="none" stroke="#000000" stroke-width="2.6752" stroke-linejoin="round" stroke-miterlimit="10" x1="57.916" y1="12.114" x2="67.489" y2="21.688"/>
		
			<line fill="none" stroke="#000000" stroke-width="2.6752" stroke-linejoin="round" stroke-miterlimit="10" x1="5.388" y1="64.641" x2="14.962" y2="74.215"/>
		
			<line fill="none" stroke="#000000" stroke-width="2.6752" stroke-linejoin="round" stroke-miterlimit="10" x1="62.314" y1="17.03" x2="10.305" y2="69.04"/>
	</g>
	
		<line fill="none" stroke="#000000" stroke-width="2.6752" stroke-linejoin="round" stroke-miterlimit="10" x1="3.724" y1="71.382" x2="8.005" y2="75.93"/>
	
		<path fill="none" stroke="#000000" stroke-width="2.6752" stroke-linecap="round" stroke-linejoin="round" stroke-miterlimit="10" d="
		M39.108,30.923L26.851,18.666c1.319-4.338,0.265-9.243-3.165-12.673c-3.241-3.241-7.798-4.361-11.95-3.362l7.426,7.426
		l-9.431,9.431l-7.377-7.377c-0.946,4.118,0.182,8.616,3.39,11.824c3.491,3.491,8.51,4.519,12.904,3.09l12.179,12.179"/>
	
		<path fill="none" stroke="#000000" stroke-width="2.6752" stroke-linecap="round" stroke-linejoin="round" stroke-miterlimit="10" d="
		M40.144,48.521l12.373,12.373c-1.429,4.394-0.44,9.451,3.051,12.943c3.241,3.241,7.805,4.354,11.912,3.401l-7.372-7.372
		l9.431-9.431l7.323,7.323c0.944-4.116-0.143-8.654-3.351-11.862c-3.43-3.43-8.296-4.522-12.634-3.203L48.422,40.238"/>
</g>
</svg>
